<svg width="48" height="49" viewBox="0 0 48 49" fill="none" xmlns="http://www.w3.org/2000/svg">
<path d="M34 7.48936C37.0404 9.24473 39.5652 11.7695 41.3205 14.8099C43.0759 17.8503 44 21.2992 44 24.81C44 28.3207 43.0758 31.7696 41.3204 34.81C39.565 37.8504 37.0402 40.3752 33.9998 42.1305C30.9594 43.8858 27.5104 44.8099 23.9997 44.8099C20.4889 44.8098 17.04 43.8856 13.9997 42.1302C10.9593 40.3747 8.43458 37.8499 6.67927 34.8095C4.92396 31.769 3.99991 28.3201 4 24.8094L4.01 24.1614C4.12201 20.7073 5.1271 17.3413 6.92728 14.3913C8.72746 11.4414 11.2613 9.00826 14.2818 7.32912C17.3023 5.64998 20.7063 4.78215 24.162 4.81023C27.6177 4.83831 31.0072 5.76135 34 7.48936ZM21.578 16.2574C21.1038 15.3084 20.272 14.5868 19.2657 14.2511C18.2594 13.9154 17.1609 13.9932 16.212 14.4674L15.106 15.0214C14.6485 15.268 14.3051 15.6831 14.1484 16.1787C13.9917 16.6742 14.034 17.2113 14.2664 17.6761C14.4989 18.141 14.9031 18.4971 15.3936 18.6691C15.884 18.841 16.4222 18.8153 16.894 18.5974L18 18.0454L17.998 20.8094H16C15.5101 20.8094 15.0373 20.9893 14.6713 21.3148C14.3052 21.6403 14.0713 22.0889 14.014 22.5754L14 22.8094C14 23.3398 14.2107 23.8485 14.5858 24.2236C14.9609 24.5986 15.4696 24.8094 16 24.8094H17.998L18 30.8094C17.9999 32.3398 18.5846 33.8124 19.6346 34.9259C20.6845 36.0394 22.1202 36.7096 23.648 36.7994L24 36.8094H25C26.8565 36.8094 28.637 36.0719 29.9497 34.7591C31.2625 33.4464 32 31.6659 32 29.8094V28.8094C32 28.2789 31.7893 27.7702 31.4142 27.3951C31.0391 27.0201 30.5304 26.8094 30 26.8094H28C27.4696 26.8094 26.9609 27.0201 26.5858 27.3951C26.2107 27.7702 26 28.2789 26 28.8094L26.014 29.0434C26.0666 29.4898 26.2682 29.9055 26.586 30.2233C26.9039 30.5412 27.3196 30.7427 27.766 30.7954L27.83 30.7994L27.79 30.9134C27.5686 31.4727 27.1842 31.9525 26.6867 32.2906C26.1892 32.6287 25.6015 32.8095 25 32.8094H24C23.4696 32.8094 22.9609 32.5986 22.5858 32.2236C22.2107 31.8485 22 31.3398 22 30.8094L21.998 24.8094H30C30.4899 24.8093 30.9627 24.6294 31.3287 24.3039C31.6948 23.9784 31.9287 23.5299 31.986 23.0434L32 22.8094C32 22.2789 31.7893 21.7702 31.4142 21.3951C31.0391 21.0201 30.5304 20.8094 30 20.8094H21.998L22 18.0454C22 17.5493 21.9078 17.0576 21.728 16.5954L21.578 16.2574Z" fill="#1DD100"/>
</svg>
