<svg width="64" height="64" viewBox="0 0 64 64" fill="none" xmlns="http://www.w3.org/2000/svg">
<path d="M21.3333 56V53.3333C21.3333 51.9188 21.8952 50.5623 22.8954 49.5621C23.8956 48.5619 25.2522 48 26.6667 48H37.3333C38.7478 48 40.1044 48.5619 41.1046 49.5621C42.1048 50.5623 42.6667 51.9188 42.6667 53.3333V56M45.3333 26.6667H50.6667C52.0812 26.6667 53.4377 27.2286 54.4379 28.2288C55.4381 29.229 56 30.5855 56 32V34.6667M8 34.6667V32C8 30.5855 8.5619 29.229 9.5621 28.2288C10.5623 27.2286 11.9188 26.6667 13.3333 26.6667H18.6667M26.6667 34.6667C26.6667 36.0812 27.2286 37.4377 28.2288 38.4379C29.229 39.4381 30.5855 40 32 40C33.4145 40 34.771 39.4381 35.7712 38.4379C36.7714 37.4377 37.3333 36.0812 37.3333 34.6667C37.3333 33.2522 36.7714 31.8956 35.7712 30.8954C34.771 29.8952 33.4145 29.3333 32 29.3333C30.5855 29.3333 29.229 29.8952 28.2288 30.8954C27.2286 31.8956 26.6667 33.2522 26.6667 34.6667ZM40 13.3333C40 14.7478 40.5619 16.1044 41.5621 17.1046C42.5623 18.1048 43.9188 18.6667 45.3333 18.6667C46.7478 18.6667 48.1044 18.1048 49.1046 17.1046C50.1048 16.1044 50.6667 14.7478 50.6667 13.3333C50.6667 11.9188 50.1048 10.5623 49.1046 9.5621C48.1044 8.5619 46.7478 8 45.3333 8C43.9188 8 42.5623 8.5619 41.5621 9.5621C40.5619 10.5623 40 11.9188 40 13.3333ZM13.3333 13.3333C13.3333 14.7478 13.8952 16.1044 14.8954 17.1046C15.8956 18.1048 17.2522 18.6667 18.6667 18.6667C20.0812 18.6667 21.4377 18.1048 22.4379 17.1046C23.4381 16.1044 24 14.7478 24 13.3333C24 11.9188 23.4381 10.5623 22.4379 9.5621C21.4377 8.5619 20.0812 8 18.6667 8C17.2522 8 15.8956 8.5619 14.8954 9.5621C13.8952 10.5623 13.3333 11.9188 13.3333 13.3333Z" stroke="#1DD100" stroke-width="4" stroke-linecap="round" stroke-linejoin="round"/>
</svg>
