<svg width="28" height="28" viewBox="0 0 28 28" fill="none" xmlns="http://www.w3.org/2000/svg">
<path d="M5.83333 12.8333C6.45217 12.8333 7.04566 13.0792 7.48325 13.5168C7.92083 13.9543 8.16667 14.5478 8.16667 15.1667V17.5H19.8333V15.1667C19.8333 14.5478 20.0792 13.9543 20.5168 13.5168C20.9543 13.0792 21.5478 12.8333 22.1667 12.8333M5.83333 12.8333C5.21449 12.8333 4.621 13.0792 4.18342 13.5168C3.74583 13.9543 3.5 14.5478 3.5 15.1667V19.8333C3.5 20.4522 3.74583 21.0457 4.18342 21.4832C4.621 21.9208 5.21449 22.1667 5.83333 22.1667H22.1667C22.7855 22.1667 23.379 21.9208 23.8166 21.4832C24.2542 21.0457 24.5 20.4522 24.5 19.8333V15.1667C24.5 14.5478 24.2542 13.9543 23.8166 13.5168C23.379 13.0792 22.7855 12.8333 22.1667 12.8333M5.83333 12.8333V7C5.83333 6.07174 6.20208 5.1815 6.85846 4.52513C7.51484 3.86875 8.40508 3.5 9.33333 3.5H18.6667C19.5949 3.5 20.4852 3.86875 21.1415 4.52513C21.7979 5.1815 22.1667 6.07174 22.1667 7V12.8333M7 22.1667V24.5M21 22.1667V24.5" stroke="#030712" stroke-opacity="0.5" stroke-width="2" stroke-linecap="round" stroke-linejoin="round"/>
</svg>
