<svg width="64" height="64" viewBox="0 0 64 64" fill="none" xmlns="http://www.w3.org/2000/svg">
<path d="M42.6667 45.3333C42.6667 46.7478 43.2286 48.1044 44.2288 49.1046C45.229 50.1048 46.5855 50.6667 48 50.6667C49.4145 50.6667 50.771 50.1048 51.7712 49.1046C52.7714 48.1044 53.3333 46.7478 53.3333 45.3333M42.6667 45.3333C42.6667 43.9188 43.2286 42.5623 44.2288 41.5621C45.229 40.5619 46.5855 40 48 40C49.4145 40 50.771 40.5619 51.7712 41.5621C52.7714 42.5623 53.3333 43.9188 53.3333 45.3333M42.6667 45.3333H21.3333M53.3333 45.3333H58.6667V32M26.6667 13.3333H45.3333C52.696 13.3333 58.6667 21.6907 58.6667 32M58.6667 32H46.6667L42.6667 13.3333M25.3333 26.6667H45.3333M32 13.3333V26.6667M13.3333 24V53.3333M8 10.6667C8 9.95942 8.28095 9.28115 8.78105 8.78105C9.28115 8.28095 9.95942 8 10.6667 8H16C16.7072 8 17.3855 8.28095 17.8856 8.78105C18.3857 9.28115 18.6667 9.95942 18.6667 10.6667V21.3333C18.6667 22.0406 18.3857 22.7189 17.8856 23.219C17.3855 23.719 16.7072 24 16 24H10.6667C9.95942 24 9.28115 23.719 8.78105 23.219C8.28095 22.7189 8 22.0406 8 21.3333V10.6667Z" stroke="#1DD100" stroke-width="4" stroke-linecap="round" stroke-linejoin="round"/>
</svg>
