<svg width="28" height="29" viewBox="0 0 28 29" fill="none" xmlns="http://www.w3.org/2000/svg">
<path d="M5.83333 13.6427C6.45217 13.6427 7.04566 13.8885 7.48325 14.3261C7.92083 14.7637 8.16667 15.3572 8.16667 15.976V18.3093H19.8333V15.976C19.8333 15.3572 20.0792 14.7637 20.5168 14.3261C20.9543 13.8885 21.5478 13.6427 22.1667 13.6427M5.83333 13.6427C5.21449 13.6427 4.621 13.8885 4.18342 14.3261C3.74583 14.7637 3.5 15.3572 3.5 15.976V20.6427C3.5 21.2615 3.74583 21.855 4.18342 22.2926C4.621 22.7302 5.21449 22.976 5.83333 22.976H22.1667C22.7855 22.976 23.379 22.7302 23.8166 22.2926C24.2542 21.855 24.5 21.2615 24.5 20.6427V15.976C24.5 15.3572 24.2542 14.7637 23.8166 14.3261C23.379 13.8885 22.7855 13.6427 22.1667 13.6427M5.83333 13.6427V7.80933C5.83333 6.88107 6.20208 5.99083 6.85846 5.33445C7.51484 4.67808 8.40508 4.30933 9.33333 4.30933H18.6667C19.5949 4.30933 20.4852 4.67808 21.1415 5.33445C21.7979 5.99083 22.1667 6.88107 22.1667 7.80933V13.6427M7 22.976V25.3093M21 22.976V25.3093" stroke="#1DD100" stroke-width="2" stroke-linecap="round" stroke-linejoin="round"/>
</svg>
