<svg width="64" height="64" viewBox="0 0 64 64" fill="none" xmlns="http://www.w3.org/2000/svg">
<path d="M40 13.3334V18.6667M40 29.3334V34.6667M40 45.3334V50.6667M13.3333 13.3334H50.6667C52.0812 13.3334 53.4377 13.8953 54.4379 14.8955C55.4381 15.8957 56 17.2522 56 18.6667V26.6667C54.5855 26.6667 53.229 27.2286 52.2288 28.2288C51.2286 29.229 50.6667 30.5856 50.6667 32C50.6667 33.4145 51.2286 34.7711 52.2288 35.7713C53.229 36.7715 54.5855 37.3334 56 37.3334V45.3334C56 46.7479 55.4381 48.1044 54.4379 49.1046C53.4377 50.1048 52.0812 50.6667 50.6667 50.6667H13.3333C11.9188 50.6667 10.5623 50.1048 9.5621 49.1046C8.5619 48.1044 8 46.7479 8 45.3334V37.3334C9.41449 37.3334 10.771 36.7715 11.7712 35.7713C12.7714 34.7711 13.3333 33.4145 13.3333 32C13.3333 30.5856 12.7714 29.229 11.7712 28.2288C10.771 27.2286 9.41449 26.6667 8 26.6667V18.6667C8 17.2522 8.5619 15.8957 9.5621 14.8955C10.5623 13.8953 11.9188 13.3334 13.3333 13.3334Z" stroke="#1DD100" stroke-width="4" stroke-linecap="round" stroke-linejoin="round"/>
</svg>
